# xmcd
#
# Track frame offsets:
#	150
#	15105
#	38750
#	53185
#	64310
#	84615
#	100220
#	114795
#	130000
#	150165
#	166545
#	180565
#	193650
#
# Disc length: 2753 seconds
#
# Revision: 0
# Processed by: cddbd v1.5.2PL0 Copyright (c) Steve Scherf et al.
# Submitted via: EasyCDDAExtractor 16.0.6.1
#
DISCID=8d0abf0d
DTITLE=Συλλογικός δίσκος - Τα πιο ωραία λαϊκά 2
DYEAR=1997
DGENRE=Λαϊκή
TTITLE0=Αλεξίου Γιώργος - Ταχυπαλμία [Ν. Καρβέλα]
TTITLE1=Κούρτη Ρία - Γλυκέ μου τύραννε [Ι. Γαβαλά-Γ. Κυριαζή]
TTITLE2=Νικολαΐδης Απόστολος - Κάφ' τονε Σταύρο κάφ' τονε [Μ.Βαμβακάρη]
TTITLE3=Νικολαΐδης Απόστολος - Κάτω στα Λεμονάδικα [Βαγγ. Παπάζογλου]
TTITLE4=Νικολαΐδης Απόστολος - Όλοι οι ρεμπέτες του ντουνιά [Μ.Βαμβακάρη]
TTITLE5=Γιαννακάκη Έλενα - Ντίλι ντέλι [Α. Καλδάρα-Γ. Σαμολαδά]
TTITLE6=Γιαννακάκη Έλενα - Χωρίς φωτιά καπνός δεν βγαίνει [Θ. Δερβενιώτη-Κ. Βί
TTITLE6=ρβου]
TTITLE7=Περγιάλης Νίκος - Η δασκάλα [Ν. Περγιάλη]
TTITLE8=Νικολαΐδης Απόστολος - Πρωΐ και βράδυ στη ζωή [Απ. Νικολαΐδη]
TTITLE9=Γιουλάκης Νίκος - Οι βεργούλες [Μ. Βαμβακάρη]
TTITLE10=Ζακυνθηνάκης Ανδρέας - Μαντουμπάλα [Σ. Καζαντζίδη]
TTITLE11=Αγγελόπουλος Μανώλης-Βασιλείου Αννούλα - Φτάνει, φτάνει, φτάνει [Μ. Μ
TTITLE11=αρκάκη]
TTITLE12=Αγγελόπουλος Μανώλης - Φέρτε μου, να πιω [Μ. Αγγελόπουλου]
EXTD=
EXTT0=
EXTT1=
EXTT2=
EXTT3=
EXTT4=
EXTT5=
EXTT6=
EXTT7=
EXTT8=
EXTT9=
EXTT10=
EXTT11=
EXTT12=
PLAYORDER=
